REM DIRINDEX 1\2,1\3,1\4
REM DIRNAME cjc151,folder01,folder02,folder03
TITLE ""
FILE "096 096_TOEFL_3900.mp3" MP3
  TRACK 01 AUDIO
    TITLE "2:cjc151_4178"
    INDEX 01 00:00:00
  TRACK 02 AUDIO
    TITLE "0:"
    INDEX 01 00:01:19
  TRACK 03 AUDIO
    TITLE "3:cjc151_4179"
    INDEX 01 00:02:73
  TRACK 04 AUDIO
    TITLE "0:"
    INDEX 01 00:06:43
  TRACK 05 AUDIO
    TITLE "2:cjc151_4180"
    INDEX 01 00:08:23
  TRACK 06 AUDIO
    TITLE "0:"
    INDEX 01 00:09:42
  TRACK 07 AUDIO
    TITLE "3:cjc151_4181"
    INDEX 01 00:11:21
  TRACK 08 AUDIO
    TITLE "0:"
    INDEX 01 00:15:52
  TRACK 09 AUDIO
    TITLE "2:cjc151_4182"
    INDEX 01 00:17:35
  TRACK 10 AUDIO
    TITLE "0:"
    INDEX 01 00:18:44
  TRACK 11 AUDIO
    TITLE "3:cjc151_4183"
    INDEX 01 00:20:26
  TRACK 12 AUDIO
    TITLE "0:"
    INDEX 01 00:23:36
  TRACK 13 AUDIO
    TITLE "2:cjc151_4184"
    INDEX 01 00:25:17
  TRACK 14 AUDIO
    TITLE "0:"
    INDEX 01 00:26:13
  TRACK 15 AUDIO
    TITLE "3:cjc151_4185"
    INDEX 01 00:27:71
  TRACK 16 AUDIO
    TITLE "0:"
    INDEX 01 00:31:29
  TRACK 17 AUDIO
    TITLE "2:cjc151_4186"
    INDEX 01 00:33:09
  TRACK 18 AUDIO
    TITLE "0:"
    INDEX 01 00:34:18
  TRACK 19 AUDIO
    TITLE "3:cjc151_4187"
    INDEX 01 00:36:05
  TRACK 20 AUDIO
    TITLE "0:"
    INDEX 01 00:39:33
  TRACK 21 AUDIO
    TITLE "2:cjc151_4188"
    INDEX 01 00:41:18
  TRACK 22 AUDIO
    TITLE "0:"
    INDEX 01 00:42:33
  TRACK 23 AUDIO
    TITLE "3:cjc151_4189"
    INDEX 01 00:44:12
  TRACK 24 AUDIO
    TITLE "0:"
    INDEX 01 00:48:24
  TRACK 25 AUDIO
    TITLE "2:cjc151_4190"
    INDEX 01 00:50:03
  TRACK 26 AUDIO
    TITLE "0:"
    INDEX 01 00:51:07
  TRACK 27 AUDIO
    TITLE "3:cjc151_4191"
    INDEX 01 00:52:61
  TRACK 28 AUDIO
    TITLE "0:"
    INDEX 01 00:56:49
  TRACK 29 AUDIO
    TITLE "2:cjc151_4192"
    INDEX 01 00:58:28
  TRACK 30 AUDIO
    TITLE "0:"
    INDEX 01 00:59:24
  TRACK 31 AUDIO
    TITLE "3:cjc151_4193"
    INDEX 01 01:01:03
  TRACK 32 AUDIO
    TITLE "0:"
    INDEX 01 01:04:11
  TRACK 33 AUDIO
    TITLE "2:cjc151_4194"
    INDEX 01 01:05:68
  TRACK 34 AUDIO
    TITLE "0:"
    INDEX 01 01:06:73
  TRACK 35 AUDIO
    TITLE "3:cjc151_4195"
    INDEX 01 01:08:50
  TRACK 36 AUDIO
    TITLE "0:"
    INDEX 01 01:12:56
  TRACK 37 AUDIO
    TITLE "2:cjc151_4196"
    INDEX 01 01:14:35
  TRACK 38 AUDIO
    TITLE "0:"
    INDEX 01 01:15:33
  TRACK 39 AUDIO
    TITLE "3:cjc151_4197"
    INDEX 01 01:17:14
  TRACK 40 AUDIO
    TITLE "0:"
    INDEX 01 01:20:42
  TRACK 41 AUDIO
    TITLE "2:cjc151_4198"
    INDEX 01 01:22:21
  TRACK 42 AUDIO
    TITLE "0:"
    INDEX 01 01:23:18
  TRACK 43 AUDIO
    TITLE "3:cjc151_4199"
    INDEX 01 01:24:73
  TRACK 44 AUDIO
    TITLE "0:"
    INDEX 01 01:28:45
  TRACK 45 AUDIO
    TITLE "2:cjc151_4200"
    INDEX 01 01:30:24
  TRACK 46 AUDIO
    TITLE "0:"
    INDEX 01 01:31:51
  TRACK 47 AUDIO
    TITLE "3:cjc151_4201"
    INDEX 01 01:33:33
  TRACK 48 AUDIO
    TITLE "0:"
    INDEX 01 01:37:22
  TRACK 49 AUDIO
    TITLE "2:cjc151_4202"
    INDEX 01 01:39:02
  TRACK 50 AUDIO
    TITLE "0:"
    INDEX 01 01:40:19
  TRACK 51 AUDIO
    TITLE "3:cjc151_4203"
    INDEX 01 01:41:73
  TRACK 52 AUDIO
    TITLE "0:"
    INDEX 01 01:46:06
  TRACK 53 AUDIO
    TITLE "2:cjc151_4204"
    INDEX 01 01:47:60
  TRACK 54 AUDIO
    TITLE "0:"
    INDEX 01 01:48:65
  TRACK 55 AUDIO
    TITLE "3:cjc151_4205"
    INDEX 01 01:50:45
  TRACK 56 AUDIO
    TITLE "0:"
    INDEX 01 01:53:69
  TRACK 57 AUDIO
    TITLE "2:cjc151_4206"
    INDEX 01 01:55:48
  TRACK 58 AUDIO
    TITLE "0:"
    INDEX 01 01:56:67
  TRACK 59 AUDIO
    TITLE "3:cjc151_4207"
    INDEX 01 01:58:44
  TRACK 60 AUDIO
    TITLE "0:"
    INDEX 01 02:02:03
  TRACK 61 AUDIO
    TITLE "2:cjc151_4208"
    INDEX 01 02:03:57
  TRACK 62 AUDIO
    TITLE "0:"
    INDEX 01 02:04:68
  TRACK 63 AUDIO
    TITLE "3:cjc151_4209"
    INDEX 01 02:06:48
  TRACK 64 AUDIO
    TITLE "0:"
    INDEX 01 02:10:57
  TRACK 65 AUDIO
    TITLE "2:cjc151_4210"
    INDEX 01 02:12:35
  TRACK 66 AUDIO
    TITLE "0:"
    INDEX 01 02:14:55
  TRACK 67 AUDIO
    TITLE "3:cjc151_4211"
    INDEX 01 02:16:34
  TRACK 68 AUDIO
    TITLE "0:"
    INDEX 01 02:20:42
  TRACK 69 AUDIO
    TITLE "2:cjc151_4212"
    INDEX 01 02:22:19
  TRACK 70 AUDIO
    TITLE "0:"
    INDEX 01 02:23:19
  TRACK 71 AUDIO
    TITLE "3:cjc151_4213"
    INDEX 01 02:24:73
  TRACK 72 AUDIO
    TITLE "0:"
    INDEX 01 02:28:59
  TRACK 73 AUDIO
    TITLE "2:cjc151_4214"
    INDEX 01 02:30:38
  TRACK 74 AUDIO
    TITLE "0:"
    INDEX 01 02:31:53
  TRACK 75 AUDIO
    TITLE "3:cjc151_4215"
    INDEX 01 02:33:29
  TRACK 76 AUDIO
    TITLE "0:"
    INDEX 01 02:37:03
  TRACK 77 AUDIO
    TITLE "2:cjc151_4216"
    INDEX 01 02:38:59
  TRACK 78 AUDIO
    TITLE "0:"
    INDEX 01 02:39:63
  TRACK 79 AUDIO
    TITLE "3:cjc151_4217"
    INDEX 01 02:41:38
  TRACK 80 AUDIO
    TITLE "0:"
    INDEX 01 02:44:74
  TRACK 81 AUDIO
    TITLE "2:cjc151_4218"
    INDEX 01 02:46:53
  TRACK 82 AUDIO
    TITLE "0:"
    INDEX 01 02:47:60
  TRACK 83 AUDIO
    TITLE "3:cjc151_4219"
    INDEX 01 02:49:42
  TRACK 84 AUDIO
    TITLE "0:"
    INDEX 01 02:53:63
  TRACK 85 AUDIO
    TITLE "2:cjc151_4220"
    INDEX 01 02:55:40
  TRACK 86 AUDIO
    TITLE "0:"
    INDEX 01 02:56:40
  TRACK 87 AUDIO
    TITLE "3:cjc151_4221"
    INDEX 01 02:58:21
  TRACK 88 AUDIO
    TITLE "0:"
    INDEX 01 03:01:43
